<svg width="500" height="500" viewBox="0 0 500 500" fill="none" xmlns="http://www.w3.org/2000/svg">
<g clip-path="url(#clip0_98_57)">
<path opacity="0.05" d="M213.656 63.1768C188.27 68.1889 164.177 78.3406 142.858 93.0078C121.54 107.675 103.447 126.548 89.6912 148.466C75.9358 170.383 66.8088 194.883 62.8714 220.458C58.934 246.034 60.2694 272.144 66.7954 297.185C73.3215 322.225 84.9003 345.666 100.82 366.066C116.74 386.466 136.664 403.394 159.367 415.81C182.071 428.226 207.074 435.866 232.84 438.263C258.605 440.659 284.588 437.759 309.192 429.743L303.314 411.702C281.17 418.916 257.785 421.526 234.596 419.369C211.408 417.213 188.905 410.336 168.471 399.162C148.038 387.988 130.107 372.752 115.779 354.392C101.451 336.032 91.0302 314.935 85.1568 292.399C79.2833 269.863 78.0815 246.364 81.6252 223.346C85.1688 200.328 93.3831 178.278 105.763 158.552C118.143 138.826 134.427 121.841 153.613 108.64C172.8 95.4396 194.484 86.3031 217.332 81.7921L213.656 63.1768Z" fill="#277870"/>
</g>
<defs>
<clipPath id="clip0_98_57">
<rect width="500" height="500" fill="white"/>
</clipPath>
</defs>
</svg>
